<?xml version="1.0" encoding="iso-8859-1"?>
<!-- Generator: Adobe Illustrator 17.0.0, SVG Export Plug-In . SVG Version: 6.00 Build 0)  -->
<!DOCTYPE svg PUBLIC "-//W3C//DTD SVG 1.1//EN" "http://www.w3.org/Graphics/SVG/1.1/DTD/svg11.dtd">
<svg version="1.1" id="Layer_1" xmlns="http://www.w3.org/2000/svg" xmlns:xlink="http://www.w3.org/1999/xlink" x="0px" y="0px"
	 width="640px" height="1136px" viewBox="0 0 640 1136" style="enable-background:new 0 0 640 1136;" xml:space="preserve">
<g>
	<path style="fill:#FFFFFF;" d="M502.975,679.455c-2.335,0-4.645-0.833-6.526-2.596L386.851,574.051
		c-3.811-3.644-4.002-9.599-0.477-13.506c3.645-3.811,9.695-4.003,13.506-0.358l109.692,102.808
		c3.811,3.621,4.002,9.67,0.382,13.482C508.096,678.455,505.572,679.455,502.975,679.455L502.975,679.455z M502.975,679.455"/>
	<path style="fill:#FFFFFF;" d="M137.025,679.455c-2.621,0-5.121-1-6.979-2.977c-3.645-3.812-3.454-9.862,0.358-13.482
		l109.716-102.808c3.907-3.645,9.957-3.454,13.482,0.358c3.645,3.907,3.454,9.862-0.357,13.506L143.527,676.859
		C141.67,678.622,139.336,679.455,137.025,679.455L137.025,679.455z M137.025,679.455"/>
	<path style="fill:#FFFFFF;" d="M567.837,775.117H72.163c-26.25,0-47.64-21.296-47.64-47.64V402.641
		c0-26.226,21.391-47.641,47.64-47.641h495.674c26.226,0,47.64,21.415,47.64,47.641v324.836
		C615.478,753.822,594.064,775.117,567.837,775.117L567.837,775.117z M72.163,374.081c-15.721,0-28.561,12.839-28.561,28.561
		v324.836c0,15.817,12.839,28.561,28.561,28.561h495.674c15.817,0,28.561-12.744,28.561-28.561V402.641
		c0-15.721-12.744-28.561-28.561-28.561H72.163z M72.163,374.081"/>
	<path style="fill:#FFFFFF;" d="M320.035,612.949c-12.743,0-25.392-4.192-34.968-12.577L40.339,386.92
		c-4.003-3.43-4.383-9.481-0.93-13.482c3.454-4.002,9.481-4.288,13.482-0.929l244.634,213.453c12.195,10.599,32.752,10.599,44.949,0
		l244.324-213.096c4.003-3.43,9.957-3.073,13.506,0.929c3.43,4.003,3.073,9.957-0.929,13.411L355.028,600.277
		C345.357,608.757,332.708,612.949,320.035,612.949L320.035,612.949z M320.035,612.949"/>
</g>
</svg>
