<?xml version="1.0" encoding="iso-8859-1"?>
<!-- Generator: Adobe Illustrator 17.0.0, SVG Export Plug-In . SVG Version: 6.00 Build 0)  -->
<!DOCTYPE svg PUBLIC "-//W3C//DTD SVG 1.1//EN" "http://www.w3.org/Graphics/SVG/1.1/DTD/svg11.dtd">
<svg version="1.1" id="Layer_1" xmlns="http://www.w3.org/2000/svg" xmlns:xlink="http://www.w3.org/1999/xlink" x="0px" y="0px"
	 width="512px" height="512px" viewBox="-49 141 512 512" style="enable-background:new -49 141 512 512;" xml:space="preserve">
<path style="fill:#FFFFFF;" d="M389.883,527.359l-1.812-0.516c-5.938-1.594-11-3.188-15.406-4.719
	C385.07,450.797,426.32,141,207.008,141C-12.336,141,28.914,450.797,41.32,522.125c-4.406,1.531-9.453,3.125-15.391,4.719
	l-1.828,0.516c-24.094,7.969-40.297,30.312-40.297,55.531V653h223.203h223.188v-70.109
	C430.195,557.672,413.977,535.328,389.883,527.359z M340.867,508.422c-41.797-15.922-52.672-27.406-55.453-32.828
	c-0.094-0.188-0.188-0.406-0.281-0.594l-0.078-12.625c32.734-32.406,59.5-80.25,59.5-130.336c0-2.594-0.047-5.156-0.156-7.703
	l15.109,10.328c2.5,22.008,3.5,45.852,3.016,71.273c-0.875,45.281-6.359,85.375-10.047,107.672
	C348.414,511.672,344.789,509.906,340.867,508.422z M134.633,437.297c-25.125-28.625-40.578-62.625-43.375-94.789
	c33.062-14.219,72.688-37.875,118.484-70.805c9.609-6.914,18.875-13.797,27.609-20.445l84.203,57.484
	c1.094,7.531,1.672,15.305,1.672,23.297c0,35.133-15.984,73.5-43.844,105.258c-12.25,13.953-25.969,25.641-39.688,33.766
	c-12.25,7.281-23.844,11.281-32.688,11.281s-20.469-4-32.688-11.281C160.602,462.938,146.883,451.25,134.633,437.297z
	 M353.883,299.07c0.469,2.25,0.922,4.539,1.344,6.836l-100.125-68.367c24.875-19.562,43.125-35.203,48.953-40.25
	c3.922,3.75,7.641,7.789,11.156,12.125C333.055,231.469,346.07,261.633,353.883,299.07z M98.758,209.453
	c12.016-14.867,26.531-26.336,43.141-34.086c18.547-8.648,40.453-13.031,65.109-13.031c24.625,0,46.531,4.383,65.062,13.023
	c5.219,2.43,10.234,5.227,15.031,8.383c-12.484,10.711-47.812,40.445-89.969,70.742c-58.406,41.984-107.125,68.789-142.453,78.531
	c1.359-11.719,3.141-22.914,5.359-33.539C67.836,261.875,80.867,231.594,98.758,209.453z M51.492,406.695
	c-0.359-17.867,0.016-34.953,1.109-51.172c5.719-1.281,11.75-2.984,18.047-5.094c5.516,43.25,29.609,83.523,58.297,111.914
	L128.852,475c-0.094,0.188-0.156,0.406-0.25,0.594c-2.781,5.422-13.656,16.906-55.469,32.828c-3.938,1.484-7.547,3.25-11.609,5.203
	C57.852,491.484,52.414,451.781,51.492,406.695z M408.852,631.656H207.008H5.133V582.89c0-15.906,10.172-29.984,25.344-35.156
	l1.188-0.359c19.938-5.359,30.953-10.625,39.812-14.875c3.422-1.625,6.375-3.062,9.25-4.156
	c23.875-9.094,56.781-23.438,66.828-42.984c0.391-0.75,0.672-1.391,0.828-1.766l1.469-3.25
	c19.812,14.688,40.203,23.312,57.156,23.312c16.938,0,37.328-8.625,57.156-23.312l1.469,3.25c0.125,0.344,0.406,1,0.797,1.734
	c10.031,19.547,42.953,33.922,66.859,43.031c2.859,1.078,5.812,2.516,9.234,4.141c8.859,4.25,19.859,9.516,39.828,14.875
	l1.188,0.344c15.156,5.188,25.312,19.266,25.312,35.172L408.852,631.656L408.852,631.656z"/>
</svg>
